<?xml version="1.0" standalone="no"?>
<!DOCTYPE svg PUBLIC "-//W3C//DTD SVG 20010904//EN"
 "http://www.w3.org/TR/2001/REC-SVG-20010904/DTD/svg10.dtd">
<svg version="1.0" xmlns="http://www.w3.org/2000/svg"
 width="284.000000pt" height="284.000000pt" viewBox="0 0 284.000000 284.000000"
 preserveAspectRatio="xMidYMid meet">

<g transform="translate(0.000000,284.000000) scale(0.100000,-0.100000)"
fill="#000000" stroke="none">
<path d="M1408 2833 l1412 -3 0 -1415 c0 -937 3 -1415 10 -1415 7 0 10 480 10
1420 l0 1420 -1422 -2 -1423 -3 1413 -2z"/>
<path d="M1270 2714 c-303 -38 -574 -168 -785 -379 -231 -230 -364 -530 -381
-860 -32 -586 332 -1120 886 -1304 135 -44 218 -60 355 -67 370 -20 723 115
986 376 111 111 182 207 250 342 323 641 61 1436 -581 1758 -103 51 -216 91
-325 115 -68 15 -335 27 -405 19z m-555 -1069 l200 -185 50 48 c319 306 360
337 387 298 4 -6 8 -185 8 -398 0 -328 -2 -389 -15 -401 -12 -12 -40 -14 -57
-3 -1 0 -5 157 -8 347 l-5 346 -175 -163 c-137 -127 -179 -162 -195 -157 -10
3 -96 77 -190 164 l-170 159 -3 -344 c-2 -370 -4 -382 -51 -356 -21 11 -21 17
-21 408 0 400 2 422 35 422 6 0 100 -83 210 -185z m853 132 c31 -29 121 -112
198 -185 l141 -132 160 148 c253 234 241 224 263 212 19 -10 20 -23 20 -409 0
-429 -1 -437 -49 -411 -20 10 -21 19 -23 355 l-3 345 -179 -165 c-98 -91 -182
-165 -187 -165 -11 0 -60 43 -231 203 l-138 129 0 -334 c0 -286 -2 -337 -16
-356 -18 -26 -27 -27 -48 -6 -14 13 -16 64 -16 404 0 340 2 391 16 404 23 24
30 21 92 -37z"/>
</g>
</svg>
